Coordinates
version=1
nRows=10
nColumns=34
inDegrees=yes

Units are S.I. units (second, meters, Newtons, ...)
If the header above contains a line with 'inDegrees', this indicates whether rotational values are in degrees (yes) or radians (no).

endheader
time	pelvis_tilt	pelvis_list	pelvis_rotation	pelvis_tx	pelvis_ty	pelvis_tz	hip_flexion_r	hip_adduction_r	hip_rotation_r	knee_angle_r	ankle_angle_r	subtalar_angle_r	mtp_angle_r	hip_flexion_l	hip_adduction_l	hip_rotation_l	knee_angle_l	ankle_angle_l	subtalar_angle_l	mtp_angle_l	lumbar_extension	lumbar_bending	lumbar_rotation	arm_flex_r	arm_add_r	arm_rot_r	elbow_flex_r	pro_sup_r	arm_flex_l	arm_add_l	arm_rot_l	elbow_flex_l	pro_sup_l
      8.00000000	    -37.92482760	      0.93369449	      2.94060062	      0.43796141	      0.74652982	     -0.10675445	    102.06526516	    -18.71975388	     -2.65074683	     90.62427325	     21.43681030	    -31.71593639	      0.00000000	    104.43061314	     -8.42598462	     -3.13303514	     91.49462409	     23.53000937	    -13.54274167	      0.00000000	    -26.71662508	      2.18006801	    -10.06428484	    118.13075970	     -0.79908679	     25.01124303	     61.78333533	     78.24259636	    -54.07172783	   -171.67317176	   -139.65272837	     53.29404286	     33.40937041
      8.01666670	    -37.44663505	      1.26140202	      2.52169937	      0.43956328	      0.76253810	     -0.10674923	    100.12010551	    -18.98203595	     -3.66522663	     88.26849987	     21.84291109	    -29.32805250	      0.00000000	    102.39482419	     -8.80409140	     -3.85663588	     89.30516550	     23.34330098	    -13.21739249	      0.00000000	    -26.25753166	      1.52083535	     -9.36768037	    117.45811814	     -1.26656734	     24.93734744	     61.65921360	     79.55547628	    -57.16941561	   -170.65916517	   -141.35801660	     56.63674408	     34.98220951
      8.03333330	    -37.36218368	      1.58599711	      2.24181176	      0.44787640	      0.78872233	     -0.10216453	     97.62906700	    -19.19978413	     -4.91732085	     85.14532258	     21.64870824	    -27.52145967	      0.00000000	     99.98164516	     -9.29941355	     -4.89723678	     86.26835521	     23.27588765	    -12.17653628	      0.00000000	    -25.62304713	      0.63984537	     -8.00927750	    116.26187687	     -2.90357171	     25.08336635	     62.01133258	     80.23065010	    -62.50593230	   -171.03859446	   -144.89846380	     61.91145509	     36.06405963
      8.05000000	    -36.97550405	      1.81601484	      2.29613747	      0.44834657	      0.80217620	     -0.10115550	     95.33300119	    -19.55795670	     -5.86322484	     82.56494128	     21.61341935	    -26.14735919	      0.00000000	     97.32960135	     -9.67899916	     -6.07688558	     83.40639985	     23.38555684	    -10.58467821	      0.00000000	    -25.06049024	      0.12840850	     -7.18814251	    115.50060979	     -3.62510753	     25.08054550	     61.76431947	     80.49865232	    -65.14662531	   -170.86996610	   -145.76960060	     64.88908233	     36.78563599
      8.06666670	    -36.85793030	      2.02621347	      2.21322649	      0.44564816	      0.81481882	     -0.10113901	     93.60232827	    -19.82380361	     -6.68314007	     80.34360475	     20.99561184	    -24.67527353	      0.00000000	     94.98246477	    -10.07581684	     -7.33149444	     80.52134269	     23.15827807	     -9.78955034	      0.00000000	    -23.77554781	     -0.35484004	     -7.74501212	    113.89202123	     -2.79211469	     25.02744030	     62.17616042	     80.71815882	    -67.03690410	   -169.98719764	   -145.72998907	     66.50278987	     37.27179846
      8.08333330	    -36.61590395	      1.98302164	      2.19206873	      0.44706323	      0.83386325	     -0.10217256	     91.49412732	    -20.01304189	     -7.64822556	     77.98480731	     20.14112561	    -23.59064648	      0.00000000	     92.51767719	    -10.33227536	     -8.32535132	     77.59698770	     21.67822193	    -10.56947887	      0.00000000	    -22.76226424	     -0.35189586	     -8.40473110	    112.52940700	     -2.02111446	     24.58173057	     62.15193602	     81.03381305	    -68.19342791	   -168.80447457	   -145.28656074	     67.28387811	     37.64611277
      8.10000000	    -36.55031224	      2.15270265	      1.95328783	      0.45638326	      0.85606637	     -0.09735199	     89.27695162	    -19.75739884	     -8.43166736	     75.27157058	     19.00885725	    -22.95910542	      0.00000000	     89.77582552	    -10.69627845	     -9.44557120	     74.17628275	     21.62996087	     -9.10385711	      0.00000000	    -21.81915351	     -0.69429507	     -8.33840133	    112.49754467	     -1.33549985	     25.02521836	     60.15729558	     81.43337392	    -68.01591247	   -168.85636436	   -144.50085826	     66.11783544	     37.85712269
      8.11666670	    -36.28025923	      2.37152309	      1.74647406	      0.45730270	      0.87278461	     -0.09667683	     87.23201182	    -19.50954203	     -8.98649725	     72.81905103	     18.20276379	    -22.10052950	      0.00000000	     87.09808804	    -10.77694485	    -10.31778233	     71.00917531	     21.30766608	     -8.14700500	      0.00000000	    -21.04450543	     -0.96503237	     -8.86951557	    110.45990118	     -0.38531676	     25.10813385	     60.94610530	     81.98691160	    -68.30148214	   -167.86583995	   -143.67049837	     65.11695788	     37.99574753
      8.13333330	    -36.04620549	      2.86298810	      1.17202833	      0.47554405	      0.88775052	     -0.09650491	     84.96208621	    -19.03954982	     -9.33422438	     70.35247697	     17.81730208	    -21.14075682	      0.00000000	     84.05645769	    -11.20217370	    -11.67961023	     68.11549382	     21.32451716	     -7.28931013	      0.00000000	    -19.83046101	     -1.70333997	     -8.06300768	    109.57977886	     -0.71208679	     26.28781482	     60.16469294	     82.52147873	    -69.74240806	   -168.25865974	   -143.06182697	     65.06893181	     38.10696427
      8.15000000	    -35.24737864	      3.02679073	      0.67452258	      0.47925918	      0.90780182	     -0.08912312	     81.95699094	    -18.42336956	     -9.96015844	     67.75782010	     17.57198641	    -20.54414617	      0.00000000	     80.67557562	    -11.67756042	    -12.67898570	     65.51256164	     21.06811854	     -6.77872999	      0.00000000	    -18.55142207	     -2.34890609	     -8.52218452	    104.69458305	     -0.08163656	     26.41580263	     63.42761111	     83.48992188	    -72.96501598	   -167.09837825	   -142.83667888	     67.33998131	     38.39940282
